<?xml version="1.0" encoding="UTF-8"?>
<!DOCTYPE svg PUBLIC "-//W3C//DTD SVG 1.1//EN" "http://www.w3.org/Graphics/SVG/1.1/DTD/svg11.dtd">
<!-- Creator: CorelDRAW 2020 (64-Bit) -->
<svg xmlns="http://www.w3.org/2000/svg" xml:space="preserve" width="46.6772mm" height="44.107mm" version="1.1" style="shape-rendering:geometricPrecision; text-rendering:geometricPrecision; image-rendering:optimizeQuality; fill-rule:evenodd; clip-rule:evenodd"
viewBox="0 0 4802.65 4538.2"
 xmlns:xlink="http://www.w3.org/1999/xlink"
 xmlns:xodm="http://www.corel.com/coreldraw/odm/2003">
 <defs>
  <style type="text/css">
   <![CDATA[
    .str0 {stroke:black;stroke-width:20.59;stroke-miterlimit:22.9256}
    .str1 {stroke:black;stroke-width:20.59;stroke-miterlimit:22.9256;stroke-dasharray:123.438001 82.292001}
    .fil0 {fill:none}
    .fil2 {fill:none;fill-rule:nonzero}
    .fil1 {fill:black;fill-rule:nonzero}
   ]]>
  </style>
 </defs>
 <g id="Layer_x0020_1">
  <metadata id="CorelCorpID_0Corel-Layer"/>
  <line class="fil0 str0" x1="284.83" y1="4538.2" x2="284.83" y2= "418.42" />
  <path class="fil1" d="M275.26 335.89l0 6.19c-16.05,-8.06 -29.5,-17.53 -40.29,-28.36 -15.31,-15.42 -27.15,-33.58 -35.44,-54.54 -8.33,-20.96 -12.48,-42.69 -12.48,-65.22 0,-32.93 8.17,-63.05 24.45,-90.15 16.28,-27.15 37.58,-46.6 63.76,-58.31l0 6.85c-13.11,7.25 -23.9,17.1 -32.33,29.61 -8.43,12.53 -14.76,28.36 -18.9,47.58 -4.2,19.22 -6.26,39.32 -6.26,60.22 0,22.7 1.74,43.35 5.28,61.91 2.77,14.65 6.14,26.41 10.08,35.29 3.97,8.88 9.31,17.36 15.94,25.53 6.71,8.17 15.42,16.02 26.19,23.42l0 -0.02zm341.1 -283.55l0 -6.85c16.16,7.94 29.67,17.36 40.44,28.21 15.19,15.51 27.01,33.75 35.29,54.66 8.33,20.85 12.48,42.64 12.48,65.27 0,32.96 -8.11,63.05 -24.39,90.15 -16.22,27.18 -37.52,46.6 -63.79,58.31l0 -6.19c13.11,-7.37 23.95,-17.22 32.44,-29.67 8.51,-12.48 14.76,-28.36 18.9,-47.66 4.08,-19.27 6.14,-39.29 6.14,-60.22 0,-22.65 -1.74,-43.29 -5.28,-61.96 -2.65,-14.65 -6,-26.36 -10.02,-35.18 -3.97,-8.83 -9.31,-17.31 -15.96,-25.48 -6.6,-8.17 -15.36,-16.02 -26.25,-23.42l-0.01 0.03z"/>
  <path class="fil1" d="M378.61 31.29c10.57,-10.68 16.82,-16.82 18.74,-18.45 4.74,-4.02 9.85,-7.19 15.36,-9.42 5.51,-2.22 10.94,-3.36 16.33,-3.36 9.14,0 16.94,2.69 23.53,7.99 6.54,5.34 10.94,13.08 13.11,23.24 10.99,-12.85 20.25,-21.25 27.81,-25.27 7.56,-3.97 15.36,-6 23.36,-6 7.74,0 14.65,2.03 20.7,6 6,3.97 10.79,10.51 14.28,19.59 2.35,6.14 3.54,15.85 3.54,29.07l0 62.94c0,9.11 0.66,15.36 2,18.74 1.03,2.28 2.99,4.31 5.77,5.94 2.83,1.63 7.4,2.46 13.77,2.46l0 5.89 -71.53 0 0 -5.89 3.06 0c6.19,0 11.11,-1.2 14.59,-3.65 2.46,-1.69 4.2,-4.42 5.23,-8.11 0.43,-1.8 0.66,-6.91 0.66,-15.36l0 -62.88c0,-11.94 -1.43,-20.3 -4.31,-25.22 -4.2,-6.8 -10.82,-10.25 -20.04,-10.25 -5.6,0 -11.31,1.43 -17.05,4.26 -5.66,2.77 -12.56,8.06 -20.7,15.68l-0.32 1.8 0.66 6.85 0 69.73c0,9.91 0.55,16.13 1.63,18.56 1.14,2.4 3.2,4.46 6.26,6.08 3.06,1.63 8.28,2.46 15.62,2.46l0 5.89 -73.51 0 0 -5.89c7.99,0 13.51,-0.92 16.5,-2.83 2.99,-1.91 5.05,-4.79 6.19,-8.59 0.55,-1.8 0.8,-7.03 0.8,-15.68l0 -62.88c0,-11.94 -1.74,-20.53 -5.23,-25.82 -4.68,-6.85 -11.16,-10.28 -19.53,-10.28 -5.71,0 -11.39,1.57 -16.99,4.68 -8.77,4.68 -15.59,10.02 -20.3,15.91l0 78.41c0,9.54 0.66,15.68 1.94,18.56 1.32,2.83 3.28,4.94 5.89,6.42 2.54,1.43 7.77,2.11 15.68,2.11l0 5.89 -72.19 0 0 -5.89c6.71,0 11.39,-0.71 14.04,-2.11 2.69,-1.48 4.68,-3.71 6.11,-6.85 1.37,-3.09 2.06,-9.14 2.06,-18.13l0 -55.86c0,-16.02 -0.48,-26.36 -1.43,-31.04 -0.77,-3.54 -1.91,-5.94 -3.54,-7.25 -1.57,-1.37 -3.77,-2.03 -6.48,-2.03 -2.99,0 -6.54,0.82 -10.68,2.4l-2.4 -5.89 44.09 -17.96 6.85 0 0 31.27 0.07 0.02zm114.12 222.02l0 49.66 -5.23 0c-4.02,-15.57 -9.2,-26.12 -15.51,-31.75 -6.26,-5.6 -14.33,-8.43 -24.08,-8.43 -7.4,0 -13.4,1.94 -17.96,5.89 -4.52,3.91 -6.82,8.28 -6.82,13.08 0,5.94 1.69,11.05 5,15.31 3.28,4.37 9.97,8.99 20.04,13.88l23.3 11.28c21.56,10.57 32.35,24.45 32.35,41.66 0,13.28 -5,24.01 -15.07,32.12 -10.02,8.11 -21.28,12.19 -33.7,12.19 -8.94,0 -19.16,-1.57 -30.61,-4.68 -3.54,-1.03 -6.42,-1.54 -8.65,-1.54 -2.4,0 -4.34,1.32 -5.71,3.94l-5.23 0 0 -52.29 5.23 0c2.99,14.91 8.65,26.19 17.1,33.75 8.4,7.56 17.79,11.34 28.24,11.34 7.28,0 13.28,-2.11 17.9,-6.42 4.63,-4.31 6.97,-9.54 6.97,-15.59 0,-7.28 -2.62,-13.45 -7.8,-18.45 -5.17,-5 -15.47,-11.28 -30.93,-18.9 -15.39,-7.62 -25.48,-14.48 -30.27,-20.7 -4.74,-6.05 -7.14,-13.71 -7.14,-22.99 0,-12.02 4.14,-22.1 12.37,-30.21 8.22,-8.11 18.85,-12.14 31.9,-12.14 5.77,0 12.68,1.26 20.91,3.77 5.4,1.63 8.99,2.46 10.79,2.46 1.74,0 3.06,-0.37 4.02,-1.14 0.92,-0.77 2.06,-2.46 3.31,-5.05l5.23 0 0.04 -0.03z"/>
  <line class="fil2 str0" x1="244.54" y1="201.59" x2="648.35" y2= "201.59" />
  <line class="fil2 str0" x1="284.83" y1="2470.84" x2="4241.31" y2= "2470.84" />
  <polyline class="fil2 str0" points="284.83,1348.53 1627.11,3673.43 3700.13,2476.55 3700.13,2470.84 "/>
  <line class="fil2 str1" x1="1627.11" y1="3673.43" x2="1627.11" y2= "2470.84" />
  <path class="fil1" d="M4351.81 2314.04l0 48.03 34.13 0 0 10.79 -34.13 0.32 0 94.8c0,9.48 1.37,15.91 4.08,19.16 2.69,3.31 6.14,4.94 10.39,4.94 3.54,0 6.91,-1.08 10.25,-3.31 3.25,-2.17 5.82,-5.45 7.62,-9.76l6.19 0c-3.71,10.51 -8.99,18.42 -15.79,23.76 -6.85,5.28 -13.88,7.94 -21.13,7.94 -4.91,0 -9.68,-1.37 -14.36,-4.08 -4.68,-2.72 -8.11,-6.63 -10.34,-11.71 -2.22,-5.05 -3.36,-12.85 -3.36,-23.42l0 -98.66 -23.19 0 0 -5.05c5.89,-2.35 11.85,-6.26 18.02,-11.76 6.14,-5.57 11.6,-12.14 16.45,-19.82 2.46,-4.02 5.89,-11.42 10.28,-22.16l4.91 0 -0.01 0zm221.11 257.74l0 6.19c-16.05,-8.06 -29.5,-17.53 -40.29,-28.36 -15.31,-15.42 -27.15,-33.58 -35.44,-54.54 -8.33,-20.96 -12.48,-42.69 -12.48,-65.22 0,-32.93 8.17,-63.05 24.45,-90.15 16.28,-27.15 37.58,-46.6 63.76,-58.31l0 6.85c-13.11,7.25 -23.9,17.1 -32.33,29.61 -8.43,12.53 -14.76,28.36 -18.9,47.58 -4.2,19.22 -6.26,39.32 -6.26,60.22 0,22.7 1.74,43.35 5.28,61.91 2.77,14.65 6.14,26.41 10.08,35.29 3.97,8.88 9.31,17.36 15.94,25.53 6.71,8.17 15.42,16.02 26.19,23.42l0 -0.02zm111.73 -213.99l0 49.66 -5.23 0c-4.02,-15.57 -9.2,-26.12 -15.51,-31.75 -6.26,-5.6 -14.33,-8.43 -24.08,-8.43 -7.4,0 -13.4,1.94 -17.96,5.89 -4.52,3.91 -6.82,8.28 -6.82,13.08 0,5.94 1.69,11.05 5,15.31 3.28,4.37 9.97,8.99 20.04,13.88l23.3 11.28c21.56,10.57 32.35,24.45 32.35,41.66 0,13.28 -5,24.01 -15.07,32.12 -10.02,8.11 -21.28,12.19 -33.7,12.19 -8.94,0 -19.16,-1.57 -30.61,-4.68 -3.54,-1.03 -6.42,-1.54 -8.65,-1.54 -2.4,0 -4.34,1.32 -5.71,3.94l-5.23 0 0 -52.29 5.23 0c2.99,14.91 8.65,26.19 17.1,33.75 8.4,7.56 17.79,11.34 28.24,11.34 7.28,0 13.28,-2.11 17.9,-6.42 4.63,-4.31 6.97,-9.54 6.97,-15.59 0,-7.28 -2.62,-13.45 -7.8,-18.45 -5.17,-5 -15.47,-11.28 -30.93,-18.9 -15.39,-7.62 -25.48,-14.48 -30.27,-20.7 -4.74,-6.05 -7.14,-13.71 -7.14,-22.99 0,-12.02 4.14,-22.1 12.37,-30.21 8.22,-8.11 18.85,-12.14 31.9,-12.14 5.77,0 12.68,1.26 20.91,3.77 5.4,1.63 8.99,2.46 10.79,2.46 1.74,0 3.06,-0.37 4.02,-1.14 0.92,-0.77 2.06,-2.46 3.31,-5.05l5.23 0 0.04 -0.03zm29.79 -69.6l0 -6.85c16.16,7.94 29.67,17.36 40.44,28.21 15.19,15.51 27.01,33.75 35.29,54.66 8.33,20.85 12.48,42.64 12.48,65.27 0,32.96 -8.11,63.05 -24.39,90.15 -16.22,27.18 -37.52,46.6 -63.79,58.31l0 -6.19c13.11,-7.37 23.95,-17.22 32.44,-29.67 8.51,-12.48 14.76,-28.36 18.9,-47.66 4.08,-19.27 6.14,-39.29 6.14,-60.22 0,-22.65 -1.74,-43.29 -5.28,-61.96 -2.65,-14.65 -6,-26.36 -10.02,-35.18 -3.97,-8.83 -9.31,-17.31 -15.96,-25.48 -6.6,-8.17 -15.36,-16.02 -26.25,-23.42l-0.01 0.03z"/>
  <path class="fil1" d="M873.87 2527.33l0 48.03 34.13 0 0 10.79 -34.13 0.32 0 94.8c0,9.48 1.37,15.91 4.08,19.16 2.69,3.31 6.14,4.94 10.39,4.94 3.54,0 6.91,-1.08 10.25,-3.31 3.25,-2.17 5.82,-5.45 7.62,-9.76l6.19 0c-3.71,10.51 -8.99,18.42 -15.79,23.76 -6.85,5.28 -13.88,7.94 -21.13,7.94 -4.91,0 -9.68,-1.37 -14.36,-4.08 -4.68,-2.72 -8.11,-6.63 -10.34,-11.71 -2.22,-5.05 -3.36,-12.85 -3.36,-23.42l0 -98.66 -23.19 0 0 -5.05c5.89,-2.35 11.85,-6.26 18.02,-11.76 6.14,-5.57 11.6,-12.14 16.45,-19.82 2.46,-4.02 5.89,-11.42 10.28,-22.16l4.91 0 -0.01 0z"/>
  <path class="fil1" d="M200.74 2459.37c0,-7.14 -2.83,-13.51 -8.43,-19.16 -5.48,-5.71 -12.14,-8.59 -19.88,-8.59 -3.65,0 -7.08,0.8 -10.34,2.4 -3.31,1.57 -6.31,3.8 -9.11,6.68 -5.37,6.26 -8.11,12.79 -8.11,19.59 0,7.14 3.12,13.4 9.25,18.67 2.83,2.35 6,4.2 9.42,5.51 3.49,1.37 7.08,2.03 10.79,2.03 6.71,0 12.74,-2.77 18.13,-8.28 5.48,-5.45 8.28,-11.71 8.28,-18.85l-0.02 0zm23.21 0.76c0,12.68 -5.34,23.61 -15.96,32.89 -10.71,9.14 -22.33,13.71 -34.73,13.71 -12.9,0 -24.67,-4.57 -35.29,-13.71 -10.39,-9.25 -15.62,-20.48 -15.62,-33.7 0,-13.08 5.28,-24.79 15.79,-35.13 10.62,-10.28 22.7,-15.47 36.21,-15.47 12.62,0 24.08,5.4 34.29,16.13 10.17,10.6 15.31,22.36 15.31,35.29l-0.01 -0.02z"/>
  <path class="fil1" d="M972.71 2795.83l-21.36 0 0 -67.88c0,-22.42 -3.6,-45.26 -10.79,-68.62l21.3 -7.19 7.51 29.9c0,0.17 0.11,1.06 0.37,2.77 0.08,0.63 0.17,1.4 0.26,2.28 0.08,0.85 0.23,1.85 0.37,2.99 0.71,6.22 1.32,12.62 1.69,19.19 0.43,6.56 0.63,12.79 0.63,18.67l0 67.88 0.03 0z"/>
  <path class="fil1" d="M1608.01 2141.97l0 48.03 34.13 0 0 10.79 -34.13 0.32 0 94.8c0,9.48 1.37,15.91 4.08,19.16 2.69,3.31 6.14,4.94 10.39,4.94 3.54,0 6.91,-1.08 10.25,-3.31 3.25,-2.17 5.82,-5.45 7.62,-9.76l6.19 0c-3.71,10.51 -8.99,18.42 -15.79,23.76 -6.85,5.28 -13.88,7.94 -21.13,7.94 -4.91,0 -9.68,-1.37 -14.36,-4.08 -4.68,-2.72 -8.11,-6.63 -10.34,-11.71 -2.22,-5.05 -3.36,-12.85 -3.36,-23.42l0 -98.66 -23.19 0 0 -5.05c5.89,-2.35 11.85,-6.26 18.02,-11.76 6.14,-5.57 11.6,-12.14 16.45,-19.82 2.46,-4.02 5.89,-11.42 10.28,-22.16l4.91 0 -0.01 0z"/>
  <path class="fil1" d="M1706.84 2410.47l-21.36 0 0 -67.88c0,-22.42 -3.6,-45.26 -10.79,-68.62l21.3 -7.19 7.51 29.9c0,0.17 0.11,1.06 0.37,2.77 0.08,0.63 0.17,1.4 0.26,2.28 0.08,0.85 0.23,1.85 0.37,2.99 0.71,6.22 1.32,12.62 1.69,19.19 0.43,6.56 0.63,12.79 0.63,18.67l0 67.88 0.03 0z"/>
  <path class="fil1" d="M3679.76 2141.97l0 48.03 34.13 0 0 10.79 -34.13 0.32 0 94.8c0,9.48 1.37,15.91 4.08,19.16 2.69,3.31 6.14,4.94 10.39,4.94 3.54,0 6.91,-1.08 10.25,-3.31 3.25,-2.17 5.82,-5.45 7.62,-9.76l6.19 0c-3.71,10.51 -8.99,18.42 -15.79,23.76 -6.85,5.28 -13.88,7.94 -21.13,7.94 -4.91,0 -9.68,-1.37 -14.36,-4.08 -4.68,-2.72 -8.11,-6.63 -10.34,-11.71 -2.22,-5.05 -3.36,-12.85 -3.36,-23.42l0 -98.66 -23.19 0 0 -5.05c5.89,-2.35 11.85,-6.26 18.02,-11.76 6.14,-5.57 11.6,-12.14 16.45,-19.82 2.46,-4.02 5.89,-11.42 10.28,-22.16l4.91 0 -0.01 0z"/>
  <path class="fil1" d="M3827.4 2307.62c0,8.06 -3.51,14.91 -10.54,20.62 -7.28,5.63 -14.96,8.43 -23.07,8.43 -6.45,0 -13.33,-2.46 -20.7,-7.34 0.03,13.59 0.08,27.1 0.11,40.52 0.03,13.42 0.08,26.93 0.14,40.49l-22.36 0 0 -64.24c0,-29.44 -3.34,-53.48 -10.05,-72.11l21.22 -7.19 8.94 36.55c2.14,9.02 7.56,13.51 16.25,13.51 5.63,0 10.28,-2.32 14.02,-6.93 0.97,-1.66 1.69,-3.4 2.17,-5.17 0.45,-1.77 0.51,-3.46 0.23,-5.05l-2.88 -26.33c2.17,-0.63 4.94,-1.57 8.43,-2.72 3.46,-1.17 7.59,-2.54 12.27,-4.12 1.91,10.08 3.4,18.53 4.37,25.35 0.97,6.85 1.48,12.08 1.48,15.7l-0.04 0.03z"/>
  <path class="fil1" d="M1524.66 2203.16c0,10.34 -4.52,19.16 -13.56,26.53 -9.36,7.25 -19.22,10.82 -29.67,10.82 -8.28,0 -17.16,-3.17 -26.64,-9.42 0.06,17.47 0.11,34.84 0.17,52.11 0.06,17.24 0.11,34.61 0.17,52.05l-28.76 0 0 -82.61c0,-37.83 -4.31,-68.76 -12.9,-92.71l27.27 -9.25 11.48 46.97c2.77,11.6 9.73,17.36 20.91,17.36 7.22,0 13.22,-2.99 18.02,-8.91 1.26,-2.14 2.17,-4.37 2.77,-6.66 0.6,-2.28 0.66,-4.46 0.26,-6.48l-3.68 -33.87c2.77,-0.8 6.37,-2.03 10.82,-3.49 4.46,-1.51 9.73,-3.25 15.79,-5.28 2.46,12.96 4.37,23.84 5.6,32.61 1.26,8.83 1.91,15.51 1.91,20.19l0.04 0.05z"/>
  <path class="fil1" d="M148.48 129.67l0 3.82c-4.95,0.94 -8.74,2.51 -11.27,4.8 -3.64,3.4 -6.9,8.63 -9.73,15.67l-48.82 119.52 -3.83 0 -52.56 -121.11c-2.69,-6.27 -4.6,-10.06 -5.7,-11.45 -1.72,-2.15 -3.85,-3.86 -6.39,-5.1 -2.51,-1.18 -5.92,-1.99 -10.19,-2.34l0 -3.82 57.35 0 0 3.82c-6.5,0.63 -10.71,1.75 -12.67,3.32 -1.91,1.59 -2.89,3.59 -2.89,6.12 0,3.43 1.59,8.84 4.78,16.14l35.74 82.34 33.19 -81.3c3.25,-8.04 4.88,-13.58 4.88,-16.69 0,-1.99 -1.02,-3.93 -3,-5.74 -2.03,-1.83 -5.41,-3.15 -10.15,-3.89 -0.35,-0.07 -0.96,-0.19 -1.76,-0.32l0 -3.82 43.02 0 -0.02 0.02z"/>
 </g>
</svg>
