<?xml version="1.0" encoding="UTF-8"?>
<!DOCTYPE svg PUBLIC "-//W3C//DTD SVG 1.1//EN" "http://www.w3.org/Graphics/SVG/1.1/DTD/svg11.dtd">
<!-- Creator: CorelDRAW -->
<svg xmlns="http://www.w3.org/2000/svg" xml:space="preserve" width="0.955193in" height="1.15828in" version="1.1" style="shape-rendering:geometricPrecision; text-rendering:geometricPrecision; image-rendering:optimizeQuality; fill-rule:evenodd; clip-rule:evenodd"
viewBox="0 0 172.29 208.92"
 xmlns:xlink="http://www.w3.org/1999/xlink"
 xmlns:xodm="http://www.corel.com/coreldraw/odm/2003">
 <defs>
  <style type="text/css">
   <![CDATA[
    .str1 {stroke:black;stroke-width:1.31;stroke-miterlimit:2.61313}
    .str0 {stroke:black;stroke-width:1.16;stroke-miterlimit:2.61313}
    .str2 {stroke:black;stroke-width:1.25;stroke-miterlimit:2.61313}
    .fil0 {fill:none}
    .fil2 {fill:#231F27}
    .fil1 {fill:black;fill-rule:nonzero}
   ]]>
  </style>
 </defs>
 <g id="Layer_x0020_1">
  <metadata id="CorelCorpID_0Corel-Layer"/>
  <polygon class="fil0 str0" points="20.58,24.52 147.46,189 20.58,189 "/>
  <line class="fil0 str0" x1="20.58" y1="189" x2="84.14" y2= "106.64" />
  <line class="fil0 str0" x1="20.58" y1="189" x2="99.97" y2= "127.42" />
  <polygon class="fil0 str1" points="20.52,172.78 20.52,188.94 36,188.94 36,172.78 "/>
  <polygon class="fil0 str2" points="90.35,135.61 97.96,145.45 107.92,137.74 100.32,127.91 "/>
  <path class="fil1" d="M11.28 203.01l-6.43 0 -1.11 2.6c-0.28,0.64 -0.42,1.13 -0.42,1.44 0,0.25 0.12,0.48 0.36,0.67 0.24,0.19 0.76,0.31 1.56,0.37l0 0.45 -5.24 0 0 -0.45c0.69,-0.12 1.14,-0.28 1.34,-0.48 0.42,-0.39 0.88,-1.19 1.38,-2.39l5.84 -13.67 0.41 0 5.77 13.82c0.46,1.11 0.88,1.83 1.27,2.16 0.38,0.33 0.91,0.51 1.59,0.56l0 0.45 -6.55 0 0 -0.45c0.66,-0.03 1.11,-0.14 1.34,-0.33 0.23,-0.19 0.35,-0.42 0.35,-0.69 0,-0.36 -0.16,-0.93 -0.49,-1.7l-0.98 -2.36zm-0.38 -0.9l-2.8 -6.7 -2.87 6.7 5.67 0z"/>
  <path class="fil1" d="M22.99 8.13c1.15,0.25 2.01,0.63 2.58,1.18 0.79,0.75 1.19,1.67 1.19,2.76 0,0.83 -0.26,1.62 -0.78,2.38 -0.52,0.76 -1.24,1.31 -2.15,1.65 -0.91,0.35 -2.29,0.52 -4.16,0.52l-7.82 0 0 -0.45 0.62 0c0.69,0 1.18,-0.22 1.48,-0.66 0.19,-0.28 0.28,-0.89 0.28,-1.82l0 -10.75c0,-1.03 -0.12,-1.67 -0.35,-1.94 -0.32,-0.36 -0.78,-0.54 -1.41,-0.54l-0.62 0 0 -0.45 7.16 0c1.34,0 2.41,0.1 3.21,0.29 1.22,0.3 2.15,0.81 2.8,1.56 0.64,0.75 0.97,1.6 0.97,2.58 0,0.83 -0.25,1.57 -0.76,2.23 -0.5,0.66 -1.25,1.14 -2.23,1.46zm-6.41 -0.68c0.3,0.06 0.65,0.1 1.03,0.13 0.39,0.03 0.81,0.04 1.28,0.04 1.19,0 2.09,-0.13 2.68,-0.38 0.6,-0.25 1.06,-0.65 1.37,-1.18 0.31,-0.53 0.47,-1.1 0.47,-1.73 0,-0.97 -0.4,-1.79 -1.19,-2.48 -0.79,-0.68 -1.94,-1.02 -3.45,-1.02 -0.81,0 -1.55,0.09 -2.2,0.27l0 6.35zm0 7.96c0.95,0.22 1.89,0.33 2.81,0.33 1.48,0 2.61,-0.33 3.39,-1 0.78,-0.66 1.16,-1.49 1.16,-2.46 0,-0.64 -0.18,-1.27 -0.54,-1.86 -0.36,-0.6 -0.94,-1.07 -1.72,-1.41 -0.79,-0.34 -1.77,-0.51 -2.93,-0.51 -0.51,0 -0.94,0.01 -1.29,0.02 -0.36,0.02 -0.65,0.05 -0.87,0.08l0 6.8z"/>
  <path class="fil1" d="M166.5 191.56l0.38 5.64 -0.38 0c-0.5,-1.69 -1.22,-2.91 -2.16,-3.65 -0.94,-0.74 -2.05,-1.11 -3.37,-1.11 -1.09,0 -2.09,0.28 -2.97,0.84 -0.88,0.56 -1.58,1.45 -2.09,2.68 -0.51,1.22 -0.76,2.75 -0.76,4.57 0,1.5 0.24,2.81 0.72,3.91 0.48,1.1 1.2,1.95 2.16,2.53 0.97,0.59 2.06,0.88 3.29,0.88 1.07,0 2.02,-0.23 2.84,-0.69 0.82,-0.46 1.72,-1.37 2.71,-2.74l0.38 0.25c-0.83,1.47 -1.8,2.55 -2.91,3.24 -1.11,0.68 -2.42,1.02 -3.94,1.02 -2.74,0 -4.87,-1.02 -6.37,-3.06 -1.12,-1.52 -1.69,-3.31 -1.69,-5.36 0,-1.66 0.37,-3.18 1.11,-4.57 0.74,-1.39 1.76,-2.46 3.05,-3.23 1.3,-0.76 2.71,-1.14 4.25,-1.14 1.19,0 2.37,0.29 3.54,0.88 0.34,0.18 0.58,0.27 0.73,0.27 0.22,0 0.41,-0.08 0.57,-0.23 0.21,-0.22 0.36,-0.53 0.45,-0.92l0.45 0z"/>
  <path class="fil1" d="M118.98 128.66l7.69 0 0 -4.78c0,-0.84 -0.05,-1.4 -0.16,-1.67 -0.08,-0.2 -0.25,-0.38 -0.52,-0.52 -0.35,-0.2 -0.72,-0.29 -1.11,-0.29l-0.59 0 0 -0.45 7.11 0 0 0.45 -0.59 0c-0.39,0 -0.76,0.09 -1.11,0.28 -0.26,0.13 -0.44,0.33 -0.53,0.59 -0.1,0.26 -0.14,0.8 -0.14,1.61l0 10.75c0,0.84 0.05,1.39 0.16,1.66 0.08,0.2 0.25,0.38 0.51,0.53 0.36,0.2 0.73,0.29 1.13,0.29l0.59 0 0 0.45 -7.11 0 0 -0.45 0.59 0c0.68,0 1.17,-0.2 1.49,-0.6 0.21,-0.26 0.31,-0.89 0.31,-1.88l0 -5.06 -7.69 0 0 5.06c0,0.84 0.05,1.39 0.16,1.66 0.08,0.2 0.25,0.38 0.51,0.53 0.35,0.2 0.72,0.29 1.11,0.29l0.6 0 0 0.45 -7.11 0 0 -0.45 0.59 0c0.69,0 1.19,-0.2 1.5,-0.6 0.2,-0.26 0.29,-0.89 0.29,-1.88l0 -10.75c0,-0.84 -0.05,-1.4 -0.16,-1.67 -0.08,-0.2 -0.25,-0.38 -0.51,-0.52 -0.36,-0.2 -0.73,-0.29 -1.13,-0.29l-0.59 0 0 -0.45 7.11 0 0 0.45 -0.6 0c-0.39,0 -0.76,0.09 -1.11,0.28 -0.25,0.13 -0.43,0.33 -0.53,0.59 -0.1,0.26 -0.15,0.8 -0.15,1.61l0 4.78z"/>
  <path class="fil1" d="M87.71 91.55l-6.41 -13.97 0 11.09c0,1.02 0.11,1.66 0.33,1.92 0.3,0.34 0.79,0.51 1.45,0.51l0.59 0 0 0.45 -5.84 0 0 -0.45 0.6 0c0.71,0 1.21,-0.21 1.51,-0.64 0.18,-0.26 0.27,-0.86 0.27,-1.79l0 -10.85c0,-0.73 -0.08,-1.27 -0.25,-1.59 -0.12,-0.24 -0.33,-0.43 -0.64,-0.6 -0.31,-0.16 -0.81,-0.24 -1.49,-0.24l0 -0.45 4.76 0 5.99 12.98 5.93 -12.98 4.71 0 0 0.45 -0.58 0c-0.72,0 -1.23,0.21 -1.53,0.64 -0.18,0.26 -0.27,0.86 -0.27,1.79l0 10.85c0,1.02 0.12,1.66 0.35,1.92 0.3,0.34 0.79,0.51 1.45,0.51l0.58 0 0 0.45 -7.11 0 0 -0.45 0.6 0c0.72,0 1.22,-0.21 1.51,-0.64 0.18,-0.26 0.27,-0.86 0.27,-1.79l0 -11.09 -6.39 13.97 -0.4 0z"/>
  <path class="fil1" d="M102.17 105.97c0,0.79 -0.35,1.47 -1.04,2.03 -0.72,0.56 -1.47,0.83 -2.28,0.83 -0.63,0 -1.32,-0.24 -2.04,-0.72 0,1.34 0.01,2.67 0.01,4 0,1.32 0.01,2.66 0.01,3.99l-2.2 0 0 -6.33c0,-2.9 -0.33,-5.27 -0.99,-7.11l2.09 -0.71 0.88 3.6c0.21,0.89 0.75,1.33 1.6,1.33 0.56,0 1.01,-0.23 1.38,-0.68 0.1,-0.16 0.17,-0.33 0.21,-0.51 0.05,-0.18 0.05,-0.34 0.02,-0.5l-0.28 -2.6c0.21,-0.06 0.49,-0.15 0.83,-0.27 0.34,-0.12 0.75,-0.25 1.21,-0.4 0.19,0.99 0.33,1.83 0.43,2.5 0.1,0.68 0.15,1.19 0.15,1.55z"/>
  <path class="fil2" d="M119.8 85.78l-0.31 -0.41c-3.36,1.42 -6.15,0.52 -8.3,-2.22 -8.01,-10.49 -44.32,-58.01 -52.33,-68.49 -3.24,-4.24 -5.79,-5.64 -10.85,-2.99l0.4 0.52c4.07,-1.89 6.71,0.19 9.2,3.44 2.02,2.64 52.44,68.65 52.46,68.64 2.79,3.36 5.2,3.43 8.98,2.1 -2.28,3.3 -2.84,5.64 -0.33,9.21 -0.02,0.01 47.61,62.34 49.63,64.98 2.48,3.25 3.8,6.34 0.9,9.77l0.4 0.52c3.89,-4.18 3.2,-7.02 -0.03,-11.26 -8.01,-10.49 -41.51,-54.33 -49.52,-64.81 -2.08,-2.8 -2.21,-5.72 0.04,-8.59l-0.31 -0.41z"/>
  <path class="fil1" d="M137.75 81.55c-0.31,0.13 -0.62,0.28 -0.92,0.44 -0.3,0.16 -0.61,0.35 -0.92,0.55 -0.67,-1.16 -1.24,-2.21 -1.71,-3.14 -0.47,-0.93 -0.84,-1.76 -1.09,-2.48 -0.05,-0.14 -0.11,-0.34 -0.2,-0.61 -0.08,-0.27 -0.18,-0.61 -0.29,-1.01l-0.78 -2.97 -0.22 0c-0.14,0.63 -0.31,1.34 -0.53,2.12 -0.22,0.78 -0.46,1.59 -0.71,2.43 -0.21,0.65 -0.56,1.45 -1.04,2.38 -0.48,0.94 -1.09,2.03 -1.83,3.29 -0.34,-0.2 -0.68,-0.39 -1,-0.57 -0.32,-0.18 -0.62,-0.33 -0.9,-0.47 0.81,-1.38 1.5,-2.58 2.05,-3.62 0.55,-1.04 0.98,-1.93 1.29,-2.67 0.81,-1.95 1.46,-4.25 1.95,-6.91l1.69 0.01c0.28,1.8 0.7,3.5 1.24,5.1 0.54,1.6 1.18,3.1 1.93,4.49 0.19,0.34 0.41,0.75 0.67,1.22 0.26,0.47 0.56,1.01 0.89,1.6 0.06,0.11 0.14,0.24 0.22,0.39 0.08,0.15 0.16,0.29 0.23,0.42l-0.01 0.01z"/>
 </g>
</svg>
